<svg xmlns="http://www.w3.org/2000/svg" xmlns:xlink="http://www.w3.org/1999/xlink" width="180" zoomAndPan="magnify" viewBox="0 0 135 135.000003" height="180" preserveAspectRatio="xMidYMid meet" version="1.0"><defs><clipPath id="3177cce753"><path d="M 0.496094 0 L 134.503906 0 L 134.503906 134.007812 L 0.496094 134.007812 Z M 0.496094 0 " clip-rule="nonzero"/></clipPath></defs><path fill="#422f01" d="M 9.429688 8.933594 L 13.898438 8.933594 L 13.898438 13.402344 L 9.429688 13.402344 Z M 9.429688 8.933594 " fill-opacity="1" fill-rule="nonzero"/><path fill="#422f01" d="M 18.363281 8.933594 L 22.832031 8.933594 L 22.832031 13.402344 L 18.363281 13.402344 Z M 18.363281 8.933594 " fill-opacity="1" fill-rule="nonzero"/><path fill="#422f01" d="M 27.296875 8.933594 L 31.765625 8.933594 L 31.765625 13.402344 L 27.296875 13.402344 Z M 27.296875 8.933594 " fill-opacity="1" fill-rule="nonzero"/><g clip-path="url(#3177cce753)"><path fill="#422f01" d="M 127.804688 0 L 7.195312 0 C 3.511719 0 0.496094 3.015625 0.496094 6.699219 L 0.496094 127.308594 C 0.496094 130.992188 3.511719 134.007812 7.195312 134.007812 L 127.804688 134.007812 C 131.488281 134.007812 134.503906 130.992188 134.503906 127.308594 L 134.503906 6.699219 C 134.503906 3.015625 131.488281 0 127.804688 0 Z M 130.035156 8.933594 L 36.230469 8.933594 L 36.230469 13.402344 L 130.035156 13.402344 L 130.035156 127.308594 C 130.035156 128.535156 129.03125 129.539062 127.804688 129.539062 L 7.195312 129.539062 C 5.96875 129.539062 4.964844 128.535156 4.964844 127.308594 L 4.964844 6.699219 C 4.964844 5.472656 5.96875 4.46875 7.195312 4.46875 L 127.804688 4.46875 C 129.03125 4.46875 130.035156 5.472656 130.035156 6.699219 Z M 130.035156 8.933594 " fill-opacity="1" fill-rule="nonzero"/></g><path fill="#422f01" d="M 42.933594 22.335938 L 92.066406 22.335938 L 92.066406 26.800781 L 42.933594 26.800781 Z M 42.933594 22.335938 " fill-opacity="1" fill-rule="nonzero"/><path fill="#422f01" d="M 13.898438 42.4375 L 13.898438 55.835938 C 13.898438 57.066406 14.902344 58.070312 16.128906 58.070312 L 83.132812 58.070312 L 83.132812 53.601562 L 18.363281 53.601562 L 18.363281 44.667969 L 116.636719 44.667969 L 116.636719 53.601562 L 109.9375 53.601562 L 109.9375 58.070312 L 118.871094 58.070312 C 120.097656 58.070312 121.101562 57.066406 121.101562 55.835938 L 121.101562 42.4375 C 121.101562 41.207031 120.097656 40.203125 118.871094 40.203125 L 16.128906 40.203125 C 14.902344 40.203125 13.898438 41.207031 13.898438 42.4375 Z M 13.898438 42.4375 " fill-opacity="1" fill-rule="nonzero"/><path fill="#422f01" d="M 13.898438 31.269531 L 34 31.269531 L 34 35.734375 L 13.898438 35.734375 Z M 13.898438 31.269531 " fill-opacity="1" fill-rule="nonzero"/><path fill="#422f01" d="M 13.898438 64.769531 L 45.164062 64.769531 L 45.164062 69.238281 L 13.898438 69.238281 Z M 13.898438 64.769531 " fill-opacity="1" fill-rule="nonzero"/><path fill="#422f01" d="M 118.871094 73.703125 L 112.167969 73.703125 L 112.167969 78.171875 L 116.636719 78.171875 L 116.636719 87.105469 L 105.023438 87.105469 L 107.703125 86.128906 C 108.847656 85.707031 109.460938 84.425781 109.042969 83.253906 L 103.878906 69.152344 L 110.1875 68.484375 C 111.109375 68.371094 111.863281 67.730469 112.113281 66.835938 C 112.363281 65.941406 112.03125 64.992188 111.277344 64.464844 L 91.761719 50.226562 C 91.148438 49.777344 90.363281 49.667969 89.667969 49.945312 C 88.96875 50.195312 88.4375 50.785156 88.269531 51.507812 L 82.632812 74.988281 C 82.410156 75.882812 82.769531 76.832031 83.523438 77.363281 C 84.277344 77.890625 85.285156 77.890625 86.039062 77.363281 L 91.285156 73.789062 L 96.171875 87.105469 L 18.363281 87.105469 L 18.363281 78.171875 L 78.667969 78.171875 L 78.667969 73.703125 L 16.128906 73.703125 C 14.902344 73.703125 13.898438 74.710938 13.898438 75.9375 L 13.898438 89.339844 C 13.898438 90.566406 14.902344 91.570312 16.128906 91.570312 L 118.871094 91.570312 C 120.097656 91.570312 121.101562 90.566406 121.101562 89.339844 L 121.101562 75.9375 C 121.101562 74.710938 120.097656 73.703125 118.871094 73.703125 Z M 93.074219 68.203125 C 92.851562 68.121094 92.625 68.09375 92.402344 68.09375 C 91.957031 68.09375 91.507812 68.230469 91.148438 68.484375 L 88.300781 70.410156 L 91.816406 55.808594 L 103.960938 64.6875 L 100.554688 65.050781 C 99.855469 65.132812 99.269531 65.496094 98.90625 66.082031 C 98.546875 66.667969 98.460938 67.394531 98.710938 68.035156 L 104.101562 82.722656 L 99.914062 84.257812 L 94.523438 69.570312 C 94.246094 68.929688 93.742188 68.425781 93.074219 68.203125 Z M 93.074219 68.203125 " fill-opacity="1" fill-rule="nonzero"/><path fill="#422f01" d="M 13.898438 98.273438 L 45.164062 98.273438 L 45.164062 102.738281 L 13.898438 102.738281 Z M 13.898438 98.273438 " fill-opacity="1" fill-rule="nonzero"/><path fill="#422f01" d="M 118.871094 107.207031 L 16.128906 107.207031 C 14.902344 107.207031 13.898438 108.210938 13.898438 109.4375 L 13.898438 122.839844 C 13.898438 124.070312 14.902344 125.074219 16.128906 125.074219 L 118.871094 125.074219 C 120.097656 125.074219 121.101562 124.070312 121.101562 122.839844 L 121.101562 109.4375 C 121.101562 108.210938 120.097656 107.207031 118.871094 107.207031 Z M 116.636719 120.605469 L 18.363281 120.605469 L 18.363281 111.671875 L 116.636719 111.671875 Z M 116.636719 120.605469 " fill-opacity="1" fill-rule="nonzero"/></svg>