<svg xmlns="http://www.w3.org/2000/svg" xmlns:xlink="http://www.w3.org/1999/xlink" width="180" zoomAndPan="magnify" viewBox="0 0 135 109.499999" height="146" preserveAspectRatio="xMidYMid meet" version="1.0"><defs><clipPath id="b900f162c8"><path d="M 0.308594 0 L 134.691406 0 L 134.691406 109 L 0.308594 109 Z M 0.308594 0 " clip-rule="nonzero"/></clipPath></defs><g clip-path="url(#b900f162c8)"><path fill="#422f01" d="M 33.8125 101.898438 L 44.882812 101.898438 L 44.882812 102.746094 C 44.882812 104.53125 43.472656 105.945312 41.695312 105.945312 L 37 105.945312 C 35.222656 105.945312 33.8125 104.53125 33.8125 102.746094 Z M 31.46875 93.226562 L 47.230469 94.105469 L 47.230469 98.039062 C 47.230469 98.535156 46.878906 98.882812 46.386719 98.882812 L 32.308594 98.882812 C 31.816406 98.882812 31.46875 98.535156 31.46875 98.039062 Z M 8.851562 89.472656 C 8.019531 89.472656 7.347656 90.144531 7.347656 90.980469 C 7.347656 91.8125 8.019531 92.488281 8.851562 92.488281 L 20.582031 92.488281 C 21.410156 92.484375 22.082031 91.8125 22.082031 90.980469 C 22.082031 90.144531 21.410156 89.472656 20.582031 89.472656 Z M 31.46875 85.425781 L 47.230469 85.425781 L 47.230469 91.085938 L 31.46875 90.207031 Z M 8.851562 82.410156 C 8.019531 82.410156 7.347656 83.085938 7.347656 83.917969 C 7.347656 84.75 8.019531 85.425781 8.851562 85.425781 L 15.886719 85.425781 C 16.71875 85.425781 17.390625 84.75 17.390625 83.917969 C 17.390625 83.085938 16.71875 82.410156 15.886719 82.410156 Z M 69.003906 78.367188 L 75.382812 78.367188 L 75.382812 89.472656 L 69.003906 89.472656 Z M 67.5 75.351562 C 66.667969 75.351562 65.996094 76.027344 65.996094 76.859375 L 65.996094 90.980469 C 65.996094 91.8125 66.667969 92.484375 67.5 92.488281 L 76.886719 92.488281 C 77.714844 92.488281 78.390625 91.8125 78.390625 90.980469 L 78.390625 76.859375 C 78.390625 76.027344 77.714844 75.351562 76.886719 75.351562 Z M 8.851562 75.351562 C 8.019531 75.351562 7.347656 76.027344 7.347656 76.859375 C 7.347656 77.691406 8.019531 78.367188 8.851562 78.367188 L 12.367188 78.367188 C 13.199219 78.367188 13.871094 77.691406 13.871094 76.859375 C 13.871094 76.027344 13.199219 75.351562 12.367188 75.351562 Z M 85.425781 68.953125 L 91.804688 68.953125 L 91.804688 89.472656 L 85.425781 89.472656 Z M 83.925781 65.941406 C 83.09375 65.941406 82.421875 66.613281 82.421875 67.445312 L 82.421875 90.980469 C 82.421875 91.8125 83.09375 92.488281 83.925781 92.488281 L 93.308594 92.488281 C 94.140625 92.484375 94.808594 91.8125 94.8125 90.980469 L 94.8125 67.445312 C 94.808594 66.613281 94.140625 65.941406 93.308594 65.941406 Z M 101.847656 61.894531 L 108.226562 61.894531 L 108.226562 89.472656 L 101.847656 89.472656 Z M 100.347656 58.878906 C 99.515625 58.878906 98.84375 59.554688 98.84375 60.386719 L 98.84375 90.980469 C 98.84375 91.8125 99.515625 92.484375 100.347656 92.488281 L 109.730469 92.488281 C 110.558594 92.484375 111.230469 91.8125 111.234375 90.980469 L 111.234375 60.386719 C 111.230469 59.554688 110.558594 58.878906 109.730469 58.878906 Z M 39.347656 55.34375 C 39.945312 55.816406 40.703125 56.359375 41.988281 57.6875 C 42.851562 58.578125 43.683594 59.570312 44.222656 60.472656 C 44.761719 61.375 44.949219 62.140625 44.894531 62.523438 C 44.890625 62.539062 44.886719 62.558594 44.882812 62.574219 L 42.6875 82.410156 L 35.996094 82.410156 L 33.796875 62.574219 C 33.753906 62.171875 33.964844 61.378906 34.511719 60.472656 C 35.0625 59.5625 35.890625 58.566406 36.75 57.675781 C 38.023438 56.351562 38.757812 55.816406 39.347656 55.34375 Z M 118.269531 54.835938 L 124.648438 54.835938 L 124.648438 89.472656 L 118.269531 89.472656 Z M 116.769531 51.820312 C 115.9375 51.820312 115.265625 52.496094 115.265625 53.328125 L 115.265625 90.980469 C 115.265625 91.8125 115.9375 92.488281 116.769531 92.488281 L 126.152344 92.488281 C 126.984375 92.488281 127.65625 91.8125 127.65625 90.980469 L 127.65625 53.328125 C 127.65625 52.496094 126.984375 51.820312 126.152344 51.820312 Z M 102.691406 44.761719 C 101.863281 44.761719 101.191406 45.4375 101.191406 46.269531 C 101.191406 47.101562 101.863281 47.777344 102.691406 47.777344 L 107.382812 47.777344 C 108.214844 47.777344 108.886719 47.101562 108.886719 46.269531 C 108.886719 45.4375 108.214844 44.761719 107.382812 44.761719 Z M 126.152344 38.390625 C 126.125 38.390625 126.09375 38.390625 126.0625 38.394531 L 122.359375 38.617188 C 121.246094 38.683594 120.589844 39.90625 121.148438 40.875 L 121.199219 40.960938 L 113.71875 44.9375 C 113.5 45.054688 113.308594 45.226562 113.171875 45.433594 L 108.925781 51.820312 L 100.347656 51.820312 C 99.949219 51.820312 99.566406 51.980469 99.285156 52.261719 L 92.683594 58.878906 L 81.578125 58.878906 C 81.105469 58.878906 80.660156 59.101562 80.375 59.484375 L 73.789062 68.292969 L 67.5 68.292969 C 66.667969 68.292969 66 68.96875 65.996094 69.800781 C 65.996094 70.632812 66.667969 71.308594 67.5 71.308594 L 74.539062 71.308594 C 75.011719 71.308594 75.457031 71.085938 75.742188 70.703125 L 82.328125 61.894531 L 93.308594 61.894531 C 93.707031 61.894531 94.089844 61.738281 94.371094 61.453125 L 100.96875 54.835938 L 109.730469 54.835938 C 110.234375 54.835938 110.703125 54.585938 110.980469 54.164062 L 115.460938 47.421875 L 122.703125 43.574219 L 122.808594 43.757812 C 123.367188 44.730469 124.746094 44.769531 125.363281 43.835938 L 127.40625 40.730469 C 128.066406 39.726562 127.351562 38.390625 126.152344 38.390625 Z M 102.691406 37.703125 C 101.863281 37.703125 101.191406 38.378906 101.191406 39.210938 C 101.191406 40.042969 101.863281 40.714844 102.691406 40.71875 L 112.078125 40.71875 C 112.90625 40.71875 113.578125 40.042969 113.578125 39.210938 C 113.578125 38.378906 112.90625 37.703125 112.078125 37.703125 Z M 102.691406 30.644531 C 101.863281 30.644531 101.191406 31.316406 101.191406 32.152344 C 101.191406 32.984375 101.863281 33.65625 102.691406 33.65625 L 126.152344 33.65625 C 126.984375 33.65625 127.65625 32.984375 127.65625 32.152344 C 127.65625 31.316406 126.984375 30.644531 126.152344 30.644531 Z M 92.527344 28.289062 C 91.695312 28.289062 91.023438 28.964844 91.023438 29.796875 L 91.023438 31.089844 C 88.820312 31.441406 87.113281 33.378906 87.113281 35.679688 C 87.113281 36.953125 87.667969 38.203125 88.652344 39.046875 C 89.636719 39.890625 90.988281 40.324219 92.527344 40.324219 C 93.503906 40.324219 94.105469 40.589844 94.449219 40.882812 C 94.789062 41.171875 94.929688 41.492188 94.929688 41.957031 C 94.929688 42.882812 94.234375 43.582031 93.308594 43.582031 L 88.617188 43.582031 C 87.785156 43.585938 87.113281 44.261719 87.113281 45.09375 C 87.113281 45.921875 87.785156 46.597656 88.617188 46.597656 L 91.023438 46.597656 L 91.023438 47.835938 C 91.023438 48.667969 91.695312 49.34375 92.527344 49.34375 C 93.355469 49.34375 94.027344 48.667969 94.027344 47.835938 L 94.027344 46.542969 C 96.230469 46.191406 97.9375 44.257812 97.9375 41.957031 C 97.9375 40.679688 97.382812 39.429688 96.398438 38.585938 C 95.414062 37.742188 94.0625 37.3125 92.527344 37.3125 C 91.546875 37.3125 90.941406 37.046875 90.601562 36.753906 C 90.261719 36.460938 90.117188 36.144531 90.117188 35.679688 C 90.117188 34.75 90.816406 34.050781 91.742188 34.050781 L 96.4375 34.050781 C 97.265625 34.050781 97.9375 33.375 97.9375 32.542969 C 97.941406 31.710938 97.265625 31.03125 96.4375 31.035156 L 94.027344 31.035156 L 94.027344 29.796875 C 94.027344 28.964844 93.355469 28.289062 92.527344 28.289062 Z M 78.449219 28.289062 C 77.621094 28.289062 76.945312 28.964844 76.945312 29.796875 L 76.945312 31.089844 C 74.746094 31.441406 73.035156 33.378906 73.035156 35.679688 C 73.035156 36.953125 73.589844 38.203125 74.578125 39.046875 C 75.5625 39.890625 76.914062 40.324219 78.449219 40.324219 C 79.429688 40.324219 80.03125 40.589844 80.371094 40.882812 C 80.710938 41.171875 80.855469 41.492188 80.855469 41.957031 C 80.855469 42.882812 80.160156 43.582031 79.234375 43.582031 L 74.539062 43.582031 C 73.707031 43.582031 73.035156 44.261719 73.035156 45.09375 C 73.035156 45.921875 73.707031 46.597656 74.539062 46.597656 L 76.945312 46.597656 L 76.945312 47.835938 C 76.945312 48.667969 77.621094 49.34375 78.449219 49.34375 C 79.28125 49.34375 79.953125 48.667969 79.953125 47.835938 L 79.953125 46.542969 C 82.15625 46.191406 83.863281 44.257812 83.863281 41.957031 C 83.863281 40.679688 83.308594 39.429688 82.320312 38.585938 C 81.335938 37.742188 79.984375 37.3125 78.449219 37.3125 C 77.46875 37.3125 76.867188 37.046875 76.527344 36.753906 C 76.1875 36.460938 76.042969 36.144531 76.042969 35.679688 C 76.042969 34.75 76.738281 34.050781 77.667969 34.050781 L 82.359375 34.050781 C 83.1875 34.050781 83.863281 33.375 83.863281 32.542969 C 83.863281 31.710938 83.1875 31.035156 82.359375 31.035156 L 79.953125 31.035156 L 79.953125 29.796875 C 79.953125 28.964844 79.28125 28.289062 78.449219 28.289062 Z M 39.347656 14.007812 C 30.785156 14.007812 23.074219 17.703125 17.710938 23.582031 L 8.851562 23.582031 C 4.144531 23.582031 0.308594 27.429688 0.308594 32.152344 L 0.308594 90.980469 C 0.308594 95.699219 4.144531 99.546875 8.851562 99.546875 L 19.40625 99.546875 C 20.234375 99.546875 20.910156 98.871094 20.910156 98.039062 C 20.910156 97.207031 20.234375 96.53125 19.40625 96.53125 L 8.851562 96.53125 C 5.757812 96.53125 3.3125 94.082031 3.3125 90.980469 L 3.3125 32.152344 C 3.3125 29.046875 5.757812 26.597656 8.851562 26.597656 L 15.304688 26.597656 C 11.988281 31.359375 10.039062 37.144531 10.039062 43.382812 C 10.039062 43.382812 10.039062 43.386719 10.039062 43.386719 C 10.042969 49.417969 11.871094 55.796875 15.21875 61.054688 C 17.59375 64.789062 21.546875 70.410156 22.875 74.113281 L 25.246094 84.261719 C 25.40625 84.945312 26.011719 85.425781 26.707031 85.425781 L 28.460938 85.425781 L 28.460938 90.101562 C 27.804688 90.246094 27.328125 90.8125 27.289062 91.484375 C 27.25 92.21875 27.742188 92.875 28.460938 93.035156 L 28.460938 98.039062 C 28.460938 99.617188 29.4375 100.992188 30.808594 101.585938 L 30.808594 102.746094 C 30.808594 106.15625 33.597656 108.957031 37 108.957031 L 41.695312 108.957031 C 45.097656 108.957031 47.890625 106.15625 47.890625 102.746094 L 47.890625 101.585938 C 49.261719 100.992188 50.234375 99.617188 50.234375 98.039062 L 50.234375 94.210938 C 50.890625 94.0625 51.367188 93.5 51.40625 92.828125 C 51.445312 92.089844 50.949219 91.433594 50.234375 91.273438 L 50.234375 85.425781 L 51.988281 85.425781 C 52.816406 85.425781 53.492188 84.75 53.492188 83.917969 C 53.492188 83.085938 52.816406 82.410156 51.988281 82.410156 L 45.710938 82.410156 L 47.867188 62.960938 C 48.082031 61.476562 47.527344 60.132812 46.800781 58.917969 C 46.070312 57.703125 45.105469 56.578125 44.144531 55.585938 C 42.214844 53.59375 40.242188 52.121094 40.242188 52.121094 C 39.707031 51.71875 38.96875 51.722656 38.433594 52.125 C 38.433594 52.125 36.492188 53.597656 34.585938 55.582031 C 33.632812 56.574219 32.675781 57.699219 31.941406 58.90625 C 31.210938 60.113281 30.648438 61.4375 30.808594 62.90625 L 32.96875 82.410156 L 27.902344 82.410156 L 25.769531 73.292969 C 25.757812 73.238281 25.742188 73.1875 25.722656 73.132812 C 24.109375 68.601562 20.042969 63.027344 17.75 59.433594 C 14.734375 54.695312 13.050781 48.796875 13.046875 43.382812 C 13.046875 28.808594 24.804688 17.023438 39.347656 17.023438 C 53.894531 17.023438 65.652344 28.808594 65.652344 43.382812 C 65.648438 48.796875 63.960938 54.695312 60.945312 59.433594 C 58.65625 63.027344 54.585938 68.601562 52.972656 73.132812 C 52.695312 73.917969 53.101562 74.777344 53.882812 75.058594 C 54.664062 75.339844 55.527344 74.929688 55.804688 74.148438 C 57.121094 70.445312 61.09375 64.796875 63.476562 61.054688 C 66.824219 55.796875 68.652344 49.417969 68.65625 43.386719 C 68.65625 43.386719 68.65625 43.386719 68.65625 43.382812 C 68.65625 37.144531 66.707031 31.359375 63.390625 26.597656 L 126.152344 26.597656 C 129.246094 26.597656 131.6875 29.046875 131.6875 32.152344 L 131.6875 90.980469 C 131.6875 94.082031 129.246094 96.53125 126.152344 96.53125 L 60.632812 96.53125 C 59.800781 96.53125 59.128906 97.207031 59.128906 98.039062 C 59.128906 98.871094 59.800781 99.546875 60.632812 99.546875 L 126.152344 99.546875 C 130.859375 99.546875 134.691406 95.699219 134.691406 90.980469 L 134.691406 32.152344 C 134.691406 27.429688 130.859375 23.582031 126.152344 23.582031 L 60.984375 23.582031 C 55.621094 17.703125 47.910156 14.007812 39.347656 14.007812 Z M 59.367188 5.417969 C 59.214844 5.414062 59.070312 5.433594 58.925781 5.46875 C 58.539062 5.574219 58.210938 5.824219 58.011719 6.171875 L 55.667969 10.246094 C 55.253906 10.96875 55.5 11.890625 56.21875 12.304688 C 56.9375 12.722656 57.855469 12.476562 58.273438 11.757812 L 60.617188 7.679688 C 61.03125 6.957031 60.785156 6.035156 60.066406 5.621094 C 59.851562 5.496094 59.613281 5.425781 59.367188 5.417969 Z M 19.332031 5.417969 C 19.085938 5.425781 18.84375 5.496094 18.628906 5.621094 C 17.910156 6.035156 17.664062 6.957031 18.078125 7.679688 L 20.425781 11.757812 C 20.839844 12.476562 21.757812 12.722656 22.476562 12.304688 C 23.199219 11.890625 23.445312 10.96875 23.03125 10.246094 L 20.683594 6.171875 C 20.484375 5.824219 20.152344 5.574219 19.769531 5.46875 C 19.625 5.433594 19.476562 5.414062 19.332031 5.417969 Z M 39.347656 0.0507812 C 38.519531 0.0507812 37.847656 0.726562 37.847656 1.558594 L 37.847656 6.265625 C 37.847656 7.097656 38.519531 7.773438 39.347656 7.773438 C 40.175781 7.773438 40.851562 7.097656 40.851562 6.265625 L 40.851562 1.558594 C 40.851562 0.726562 40.175781 0.0507812 39.347656 0.0507812 Z M 39.347656 0.0507812 " fill-opacity="1" fill-rule="nonzero"/></g></svg>