<svg xmlns="http://www.w3.org/2000/svg" xmlns:xlink="http://www.w3.org/1999/xlink" width="175" zoomAndPan="magnify" viewBox="0 0 131.25 135.000003" height="180" preserveAspectRatio="xMidYMid meet" version="1.0"><defs><clipPath id="b652474052"><path d="M 0.109375 20 L 130.394531 20 L 130.394531 76 L 0.109375 76 Z M 0.109375 20 " clip-rule="nonzero"/></clipPath><clipPath id="4d69d49432"><path d="M 81 117 L 116 117 L 116 134.007812 L 81 134.007812 Z M 81 117 " clip-rule="nonzero"/></clipPath><clipPath id="3dfea1bab9"><path d="M 14 117 L 49 117 L 49 134.007812 L 14 134.007812 Z M 14 117 " clip-rule="nonzero"/></clipPath></defs><g clip-path="url(#b652474052)"><path fill="#422f01" d="M 126.066406 75.4375 L 113.492188 75.4375 L 113.492188 71.132812 L 126.066406 71.132812 L 126.007812 25.125 L 4.507812 25.1875 L 4.566406 71.191406 L 12.890625 71.132812 L 12.890625 75.4375 L 4.507812 75.4375 C 3.371094 75.4375 2.304688 74.996094 1.5 74.195312 C 0.699219 73.390625 0.253906 72.324219 0.253906 71.191406 L 0.253906 25.125 C 0.253906 23.992188 0.699219 22.925781 1.5 22.125 C 2.304688 21.320312 3.371094 20.878906 4.507812 20.878906 L 126.066406 20.878906 C 127.203125 20.878906 128.269531 21.320312 129.070312 22.125 C 129.875 22.921875 130.316406 23.988281 130.316406 25.125 L 130.316406 71.191406 C 130.316406 72.328125 129.875 73.394531 129.070312 74.195312 C 128.269531 74.996094 127.199219 75.4375 126.066406 75.4375 Z M 126.066406 75.4375 " fill-opacity="1" fill-rule="nonzero"/></g><path fill="#422f01" d="M 46.421875 71.132812 L 84.148438 71.132812 L 84.148438 75.4375 L 46.421875 75.4375 Z M 46.421875 71.132812 " fill-opacity="1" fill-rule="nonzero"/><path fill="#422f01" d="M 86.304688 92.128906 L 81.992188 92.128906 L 81.992188 60.722656 C 81.992188 59.03125 82.652344 57.441406 83.851562 56.238281 C 85.054688 55.039062 86.648438 54.378906 88.339844 54.378906 C 90.03125 54.378906 91.625 55.039062 92.828125 56.238281 C 94.027344 57.441406 94.6875 59.03125 94.6875 60.722656 L 94.6875 81.660156 L 90.375 81.660156 L 90.375 60.722656 C 90.375 60.179688 90.164062 59.667969 89.777344 59.28125 C 89.011719 58.519531 87.671875 58.515625 86.898438 59.285156 C 86.515625 59.667969 86.304688 60.179688 86.304688 60.722656 Z M 86.304688 92.128906 " fill-opacity="1" fill-rule="nonzero"/><path fill="#422f01" d="M 103.070312 81.660156 L 98.757812 81.660156 L 98.757812 74.242188 C 98.757812 73.699219 98.546875 73.1875 98.160156 72.800781 C 97.394531 72.039062 96.054688 72.035156 95.28125 72.804688 C 94.898438 73.1875 94.6875 73.699219 94.6875 74.242188 L 94.6875 81.660156 L 90.375 81.660156 L 90.375 74.242188 C 90.375 72.554688 91.035156 70.960938 92.234375 69.761719 C 93.4375 68.5625 95.03125 67.902344 96.722656 67.902344 C 98.414062 67.902344 100.007812 68.5625 101.210938 69.757812 C 102.410156 70.960938 103.070312 72.554688 103.070312 74.242188 Z M 103.070312 81.660156 " fill-opacity="1" fill-rule="nonzero"/><path fill="#422f01" d="M 111.453125 81.660156 L 107.144531 81.660156 L 107.144531 74.242188 C 107.144531 73.699219 106.929688 73.1875 106.542969 72.800781 C 105.777344 72.039062 104.4375 72.035156 103.664062 72.804688 C 103.28125 73.1875 103.070312 73.699219 103.070312 74.242188 L 103.070312 81.660156 L 98.757812 81.660156 L 98.757812 74.242188 C 98.757812 72.554688 99.417969 70.960938 100.617188 69.761719 C 101.820312 68.5625 103.414062 67.902344 105.105469 67.902344 C 106.796875 67.902344 108.394531 68.5625 109.59375 69.757812 C 110.792969 70.960938 111.453125 72.554688 111.453125 74.242188 Z M 111.453125 81.660156 " fill-opacity="1" fill-rule="nonzero"/><path fill="#422f01" d="M 113.550781 119.351562 L 109.238281 119.351562 L 109.238281 112.679688 L 115.527344 95.925781 L 115.527344 77.472656 C 115.527344 76.929688 115.3125 76.417969 114.929688 76.03125 C 114.164062 75.269531 112.820312 75.265625 112.046875 76.035156 C 111.667969 76.417969 111.453125 76.929688 111.453125 77.472656 L 111.453125 81.660156 L 107.140625 81.660156 L 107.140625 77.472656 C 107.140625 75.78125 107.800781 74.191406 109 72.992188 C 110.203125 71.792969 111.796875 71.132812 113.492188 71.132812 C 115.183594 71.132812 116.777344 71.792969 117.976562 72.988281 C 119.179688 74.191406 119.835938 75.785156 119.835938 77.472656 L 119.835938 96.710938 L 113.550781 113.460938 Z M 113.550781 119.351562 " fill-opacity="1" fill-rule="nonzero"/><path fill="#422f01" d="M 88.402344 119.351562 L 84.089844 119.351562 L 84.089844 113.9375 C 81.714844 111.414062 73.609375 102.222656 73.609375 94.269531 L 73.609375 85.847656 C 73.609375 84.15625 74.269531 82.566406 75.464844 81.367188 C 76.671875 80.167969 78.265625 79.507812 79.957031 79.507812 C 81.648438 79.507812 83.242188 80.167969 84.441406 81.363281 C 85.644531 82.566406 86.304688 84.160156 86.304688 85.847656 L 81.992188 85.847656 C 81.992188 85.304688 81.78125 84.796875 81.394531 84.410156 C 80.628906 83.644531 79.285156 83.640625 78.515625 84.414062 C 78.132812 84.796875 77.921875 85.308594 77.921875 85.851562 L 77.921875 94.273438 C 77.921875 100.355469 85.03125 108.804688 87.769531 111.546875 L 88.398438 112.175781 Z M 88.402344 119.351562 " fill-opacity="1" fill-rule="nonzero"/><g clip-path="url(#4d69d49432)"><path fill="#422f01" d="M 115.648438 134.007812 L 111.335938 134.007812 L 111.335938 121.445312 L 86.246094 121.503906 L 86.304688 134.007812 L 81.992188 134.007812 L 81.992188 121.445312 C 81.992188 120.3125 82.433594 119.246094 83.234375 118.445312 C 84.046875 117.636719 85.113281 117.195312 86.246094 117.195312 L 111.394531 117.195312 C 112.527344 117.195312 113.59375 117.636719 114.398438 118.4375 C 115.203125 119.242188 115.648438 120.308594 115.648438 121.445312 Z M 115.648438 134.007812 " fill-opacity="1" fill-rule="nonzero"/></g><path fill="#422f01" d="M 48.578125 92.128906 L 44.269531 92.128906 L 44.269531 64.910156 C 44.269531 64.367188 44.054688 63.855469 43.671875 63.46875 C 42.902344 62.707031 41.5625 62.703125 40.789062 63.472656 C 40.410156 63.855469 40.195312 64.367188 40.195312 64.910156 L 40.195312 81.660156 L 35.882812 81.660156 L 35.882812 64.910156 C 35.882812 63.21875 36.542969 61.628906 37.742188 60.429688 C 38.945312 59.226562 40.539062 58.570312 42.234375 58.570312 C 43.925781 58.570312 45.519531 59.226562 46.71875 60.425781 C 47.921875 61.628906 48.578125 63.21875 48.578125 64.910156 Z M 48.578125 92.128906 " fill-opacity="1" fill-rule="nonzero"/><path fill="#422f01" d="M 40.195312 81.660156 L 35.882812 81.660156 L 35.882812 60.722656 C 35.882812 60.179688 35.671875 59.667969 35.285156 59.28125 C 34.519531 58.519531 33.175781 58.515625 32.40625 59.285156 C 32.027344 59.667969 31.8125 60.179688 31.8125 60.722656 L 31.8125 81.660156 L 27.5 81.660156 L 27.5 60.722656 C 27.5 59.03125 28.160156 57.4375 29.359375 56.238281 C 30.5625 55.039062 32.152344 54.378906 33.847656 54.378906 C 35.542969 54.378906 37.136719 55.039062 38.335938 56.238281 C 39.535156 57.441406 40.195312 59.03125 40.195312 60.722656 Z M 40.195312 81.660156 " fill-opacity="1" fill-rule="nonzero"/><path fill="#422f01" d="M 31.8125 81.660156 L 27.5 81.660156 L 27.5 64.910156 C 27.5 64.367188 27.289062 63.855469 26.902344 63.46875 C 26.136719 62.707031 24.792969 62.703125 24.023438 63.472656 C 23.640625 63.855469 23.429688 64.367188 23.429688 64.910156 L 23.429688 81.660156 L 19.117188 81.660156 L 19.117188 64.910156 C 19.117188 63.21875 19.777344 61.625 20.976562 60.425781 C 22.175781 59.226562 23.769531 58.570312 25.464844 58.570312 C 27.160156 58.570312 28.75 59.226562 29.949219 60.425781 C 31.152344 61.625 31.8125 63.21875 31.8125 64.910156 Z M 31.8125 81.660156 " fill-opacity="1" fill-rule="nonzero"/><path fill="#422f01" d="M 21.332031 119.351562 L 17.023438 119.351562 L 17.023438 113.460938 L 10.734375 96.707031 L 10.734375 69.097656 C 10.734375 67.40625 11.394531 65.8125 12.59375 64.613281 C 13.792969 63.414062 15.386719 62.757812 17.082031 62.757812 C 18.773438 62.757812 20.367188 63.414062 21.566406 64.613281 C 22.769531 65.8125 23.429688 67.40625 23.429688 69.097656 L 23.429688 81.660156 L 19.117188 81.660156 L 19.117188 69.097656 C 19.117188 68.554688 18.90625 68.046875 18.519531 67.660156 C 17.753906 66.894531 16.410156 66.890625 15.640625 67.660156 C 15.257812 68.042969 15.046875 68.554688 15.046875 69.097656 L 15.046875 95.929688 L 21.332031 112.679688 Z M 21.332031 119.351562 " fill-opacity="1" fill-rule="nonzero"/><path fill="#422f01" d="M 46.484375 119.351562 L 42.171875 119.351562 L 42.171875 112.179688 L 42.800781 111.546875 C 45.542969 108.804688 52.652344 100.355469 52.652344 94.269531 L 52.652344 85.847656 C 52.652344 85.304688 52.441406 84.796875 52.054688 84.410156 C 51.289062 83.644531 49.945312 83.640625 49.175781 84.414062 C 48.792969 84.796875 48.578125 85.308594 48.578125 85.851562 L 44.269531 85.851562 C 44.269531 84.160156 44.929688 82.566406 46.125 81.367188 C 47.328125 80.167969 48.921875 79.507812 50.617188 79.507812 C 52.308594 79.507812 53.902344 80.167969 55.101562 81.363281 C 56.304688 82.566406 56.964844 84.160156 56.964844 85.851562 L 56.964844 94.273438 C 56.964844 102.222656 48.859375 111.414062 46.484375 113.9375 Z M 46.484375 119.351562 " fill-opacity="1" fill-rule="nonzero"/><g clip-path="url(#3dfea1bab9)"><path fill="#422f01" d="M 48.578125 134.007812 L 44.269531 134.007812 L 44.269531 121.445312 L 19.175781 121.503906 L 19.238281 134.007812 L 14.925781 134.007812 L 14.925781 121.445312 C 14.925781 120.3125 15.367188 119.246094 16.167969 118.441406 C 16.980469 117.636719 18.046875 117.199219 19.175781 117.199219 L 44.328125 117.199219 C 45.460938 117.199219 46.527344 117.636719 47.332031 118.4375 C 48.136719 119.246094 48.578125 120.3125 48.578125 121.445312 Z M 48.578125 134.007812 " fill-opacity="1" fill-rule="nonzero"/></g><path fill="#422f01" d="M 67.441406 23.03125 L 63.128906 23.03125 L 63.128906 18.84375 C 63.128906 18.300781 62.917969 17.789062 62.535156 17.410156 C 62.148438 17.023438 61.636719 16.8125 61.09375 16.8125 L 48.519531 16.8125 C 46.824219 16.8125 45.230469 16.152344 44.03125 14.953125 C 42.832031 13.753906 42.171875 12.164062 42.171875 10.46875 C 42.171875 8.773438 42.832031 7.179688 44.035156 5.984375 C 45.230469 4.789062 46.824219 4.128906 48.519531 4.128906 L 73.667969 4.128906 C 74.210938 4.128906 74.722656 3.914062 75.109375 3.53125 C 75.492188 3.148438 75.707031 2.636719 75.707031 2.09375 L 75.707031 0 L 80.019531 0 L 80.019531 2.09375 C 80.019531 3.785156 79.359375 5.378906 78.160156 6.574219 C 76.957031 7.773438 75.363281 8.433594 73.671875 8.433594 L 48.519531 8.433594 C 47.976562 8.433594 47.464844 8.644531 47.078125 9.03125 C 46.695312 9.414062 46.484375 9.925781 46.484375 10.46875 C 46.484375 11.011719 46.695312 11.523438 47.078125 11.90625 C 47.464844 12.292969 47.976562 12.503906 48.519531 12.503906 L 61.09375 12.503906 C 62.789062 12.503906 64.382812 13.164062 65.582031 14.359375 C 66.78125 15.554688 67.441406 17.148438 67.441406 18.84375 Z M 67.441406 23.03125 " fill-opacity="1" fill-rule="nonzero"/><path fill="#422f01" d="M 12.890625 29.253906 L 17.082031 29.253906 L 17.082031 33.5625 L 12.890625 33.5625 Z M 12.890625 29.253906 " fill-opacity="1" fill-rule="nonzero"/><path fill="#422f01" d="M 21.273438 29.253906 L 25.464844 29.253906 L 25.464844 33.5625 L 21.273438 33.5625 Z M 21.273438 29.253906 " fill-opacity="1" fill-rule="nonzero"/><path fill="#422f01" d="M 29.65625 29.253906 L 33.847656 29.253906 L 33.847656 33.5625 L 29.65625 33.5625 Z M 29.65625 29.253906 " fill-opacity="1" fill-rule="nonzero"/><path fill="#422f01" d="M 38.039062 29.253906 L 42.230469 29.253906 L 42.230469 33.5625 L 38.039062 33.5625 Z M 38.039062 29.253906 " fill-opacity="1" fill-rule="nonzero"/><path fill="#422f01" d="M 46.421875 29.253906 L 50.617188 29.253906 L 50.617188 33.5625 L 46.421875 33.5625 Z M 46.421875 29.253906 " fill-opacity="1" fill-rule="nonzero"/><path fill="#422f01" d="M 54.808594 29.253906 L 59 29.253906 L 59 33.5625 L 54.808594 33.5625 Z M 54.808594 29.253906 " fill-opacity="1" fill-rule="nonzero"/><path fill="#422f01" d="M 63.191406 29.253906 L 67.382812 29.253906 L 67.382812 33.5625 L 63.191406 33.5625 Z M 63.191406 29.253906 " fill-opacity="1" fill-rule="nonzero"/><path fill="#422f01" d="M 71.574219 29.253906 L 75.765625 29.253906 L 75.765625 33.5625 L 71.574219 33.5625 Z M 71.574219 29.253906 " fill-opacity="1" fill-rule="nonzero"/><path fill="#422f01" d="M 79.957031 29.253906 L 84.148438 29.253906 L 84.148438 33.5625 L 79.957031 33.5625 Z M 79.957031 29.253906 " fill-opacity="1" fill-rule="nonzero"/><path fill="#422f01" d="M 88.339844 29.253906 L 92.53125 29.253906 L 92.53125 33.5625 L 88.339844 33.5625 Z M 88.339844 29.253906 " fill-opacity="1" fill-rule="nonzero"/><path fill="#422f01" d="M 96.722656 29.253906 L 100.914062 29.253906 L 100.914062 33.5625 L 96.722656 33.5625 Z M 96.722656 29.253906 " fill-opacity="1" fill-rule="nonzero"/><path fill="#422f01" d="M 105.109375 29.253906 L 109.300781 29.253906 L 109.300781 33.5625 L 105.109375 33.5625 Z M 105.109375 29.253906 " fill-opacity="1" fill-rule="nonzero"/><path fill="#422f01" d="M 113.492188 29.253906 L 117.683594 29.253906 L 117.683594 33.5625 L 113.492188 33.5625 Z M 113.492188 29.253906 " fill-opacity="1" fill-rule="nonzero"/><path fill="#422f01" d="M 8.699219 37.628906 L 12.890625 37.628906 L 12.890625 41.9375 L 8.699219 41.9375 Z M 8.699219 37.628906 " fill-opacity="1" fill-rule="nonzero"/><path fill="#422f01" d="M 17.082031 37.628906 L 21.273438 37.628906 L 21.273438 41.9375 L 17.082031 41.9375 Z M 17.082031 37.628906 " fill-opacity="1" fill-rule="nonzero"/><path fill="#422f01" d="M 25.464844 37.628906 L 29.65625 37.628906 L 29.65625 41.9375 L 25.464844 41.9375 Z M 25.464844 37.628906 " fill-opacity="1" fill-rule="nonzero"/><path fill="#422f01" d="M 33.847656 37.628906 L 38.039062 37.628906 L 38.039062 41.9375 L 33.847656 41.9375 Z M 33.847656 37.628906 " fill-opacity="1" fill-rule="nonzero"/><path fill="#422f01" d="M 42.230469 37.628906 L 46.421875 37.628906 L 46.421875 41.9375 L 42.230469 41.9375 Z M 42.230469 37.628906 " fill-opacity="1" fill-rule="nonzero"/><path fill="#422f01" d="M 50.617188 37.628906 L 54.808594 37.628906 L 54.808594 41.9375 L 50.617188 41.9375 Z M 50.617188 37.628906 " fill-opacity="1" fill-rule="nonzero"/><path fill="#422f01" d="M 59 37.628906 L 63.191406 37.628906 L 63.191406 41.9375 L 59 41.9375 Z M 59 37.628906 " fill-opacity="1" fill-rule="nonzero"/><path fill="#422f01" d="M 67.382812 37.628906 L 71.574219 37.628906 L 71.574219 41.9375 L 67.382812 41.9375 Z M 67.382812 37.628906 " fill-opacity="1" fill-rule="nonzero"/><path fill="#422f01" d="M 75.765625 37.628906 L 79.957031 37.628906 L 79.957031 41.9375 L 75.765625 41.9375 Z M 75.765625 37.628906 " fill-opacity="1" fill-rule="nonzero"/><path fill="#422f01" d="M 84.148438 37.628906 L 88.339844 37.628906 L 88.339844 41.9375 L 84.148438 41.9375 Z M 84.148438 37.628906 " fill-opacity="1" fill-rule="nonzero"/><path fill="#422f01" d="M 92.53125 37.628906 L 96.722656 37.628906 L 96.722656 41.9375 L 92.53125 41.9375 Z M 92.53125 37.628906 " fill-opacity="1" fill-rule="nonzero"/><path fill="#422f01" d="M 100.914062 37.628906 L 105.109375 37.628906 L 105.109375 41.9375 L 100.914062 41.9375 Z M 100.914062 37.628906 " fill-opacity="1" fill-rule="nonzero"/><path fill="#422f01" d="M 109.300781 37.628906 L 113.492188 37.628906 L 113.492188 41.9375 L 109.300781 41.9375 Z M 109.300781 37.628906 " fill-opacity="1" fill-rule="nonzero"/><path fill="#422f01" d="M 117.683594 37.628906 L 121.875 37.628906 L 121.875 41.9375 L 117.683594 41.9375 Z M 117.683594 37.628906 " fill-opacity="1" fill-rule="nonzero"/><path fill="#422f01" d="M 12.890625 46.003906 L 17.082031 46.003906 L 17.082031 50.3125 L 12.890625 50.3125 Z M 12.890625 46.003906 " fill-opacity="1" fill-rule="nonzero"/><path fill="#422f01" d="M 21.273438 46.003906 L 25.464844 46.003906 L 25.464844 50.3125 L 21.273438 50.3125 Z M 21.273438 46.003906 " fill-opacity="1" fill-rule="nonzero"/><path fill="#422f01" d="M 29.65625 46.003906 L 33.847656 46.003906 L 33.847656 50.3125 L 29.65625 50.3125 Z M 29.65625 46.003906 " fill-opacity="1" fill-rule="nonzero"/><path fill="#422f01" d="M 38.039062 46.003906 L 42.230469 46.003906 L 42.230469 50.3125 L 38.039062 50.3125 Z M 38.039062 46.003906 " fill-opacity="1" fill-rule="nonzero"/><path fill="#422f01" d="M 46.421875 46.003906 L 50.617188 46.003906 L 50.617188 50.3125 L 46.421875 50.3125 Z M 46.421875 46.003906 " fill-opacity="1" fill-rule="nonzero"/><path fill="#422f01" d="M 54.808594 46.003906 L 59 46.003906 L 59 50.3125 L 54.808594 50.3125 Z M 54.808594 46.003906 " fill-opacity="1" fill-rule="nonzero"/><path fill="#422f01" d="M 63.191406 46.003906 L 67.382812 46.003906 L 67.382812 50.3125 L 63.191406 50.3125 Z M 63.191406 46.003906 " fill-opacity="1" fill-rule="nonzero"/><path fill="#422f01" d="M 71.574219 46.003906 L 75.765625 46.003906 L 75.765625 50.3125 L 71.574219 50.3125 Z M 71.574219 46.003906 " fill-opacity="1" fill-rule="nonzero"/><path fill="#422f01" d="M 79.957031 46.003906 L 84.148438 46.003906 L 84.148438 50.3125 L 79.957031 50.3125 Z M 79.957031 46.003906 " fill-opacity="1" fill-rule="nonzero"/><path fill="#422f01" d="M 88.339844 46.003906 L 92.53125 46.003906 L 92.53125 50.3125 L 88.339844 50.3125 Z M 88.339844 46.003906 " fill-opacity="1" fill-rule="nonzero"/><path fill="#422f01" d="M 96.722656 46.003906 L 100.914062 46.003906 L 100.914062 50.3125 L 96.722656 50.3125 Z M 96.722656 46.003906 " fill-opacity="1" fill-rule="nonzero"/><path fill="#422f01" d="M 105.109375 46.003906 L 109.300781 46.003906 L 109.300781 50.3125 L 105.109375 50.3125 Z M 105.109375 46.003906 " fill-opacity="1" fill-rule="nonzero"/><path fill="#422f01" d="M 113.492188 46.003906 L 117.683594 46.003906 L 117.683594 50.3125 L 113.492188 50.3125 Z M 113.492188 46.003906 " fill-opacity="1" fill-rule="nonzero"/><path fill="#422f01" d="M 8.699219 54.382812 L 12.890625 54.382812 L 12.890625 58.6875 L 8.699219 58.6875 Z M 8.699219 54.382812 " fill-opacity="1" fill-rule="nonzero"/><path fill="#422f01" d="M 17.082031 54.382812 L 21.273438 54.382812 L 21.273438 58.6875 L 17.082031 58.6875 Z M 17.082031 54.382812 " fill-opacity="1" fill-rule="nonzero"/><path fill="#422f01" d="M 50.617188 54.382812 L 54.808594 54.382812 L 54.808594 58.6875 L 50.617188 58.6875 Z M 50.617188 54.382812 " fill-opacity="1" fill-rule="nonzero"/><path fill="#422f01" d="M 59 54.382812 L 63.191406 54.382812 L 63.191406 58.6875 L 59 58.6875 Z M 59 54.382812 " fill-opacity="1" fill-rule="nonzero"/><path fill="#422f01" d="M 67.382812 54.382812 L 71.574219 54.382812 L 71.574219 58.6875 L 67.382812 58.6875 Z M 67.382812 54.382812 " fill-opacity="1" fill-rule="nonzero"/><path fill="#422f01" d="M 75.765625 54.382812 L 79.957031 54.382812 L 79.957031 58.6875 L 75.765625 58.6875 Z M 75.765625 54.382812 " fill-opacity="1" fill-rule="nonzero"/><path fill="#422f01" d="M 109.300781 54.382812 L 113.492188 54.382812 L 113.492188 58.6875 L 109.300781 58.6875 Z M 109.300781 54.382812 " fill-opacity="1" fill-rule="nonzero"/><path fill="#422f01" d="M 100.914062 54.382812 L 105.109375 54.382812 L 105.109375 58.6875 L 100.914062 58.6875 Z M 100.914062 54.382812 " fill-opacity="1" fill-rule="nonzero"/><path fill="#422f01" d="M 117.683594 54.382812 L 121.875 54.382812 L 121.875 58.6875 L 117.683594 58.6875 Z M 117.683594 54.382812 " fill-opacity="1" fill-rule="nonzero"/><path fill="#422f01" d="M 54.808594 62.757812 L 75.765625 62.757812 L 75.765625 67.0625 L 54.808594 67.0625 Z M 54.808594 62.757812 " fill-opacity="1" fill-rule="nonzero"/></svg>