<svg xmlns="http://www.w3.org/2000/svg" xmlns:xlink="http://www.w3.org/1999/xlink" width="400" zoomAndPan="magnify" viewBox="0 0 300 74.999997" height="100" preserveAspectRatio="xMidYMid meet" version="1.0"><defs><g/><clipPath id="b6a3f968ab"><path d="M 3 5.894531 L 67 5.894531 L 67 68.894531 L 3 68.894531 Z M 3 5.894531 " clip-rule="nonzero"/></clipPath></defs><g fill="#422f01" fill-opacity="1"><g transform="translate(70.137679, 52.500248)"><g><path d="M 1.1875 0 L 14.34375 -36 L 21.75 -36 L 34.921875 0 L 27.921875 0 L 25.046875 -8.328125 L 11 -8.328125 L 8.078125 0 Z M 12.796875 -13.46875 L 23.25 -13.46875 L 18 -28.4375 Z M 12.796875 -13.46875 "/></g></g></g><g fill="#422f01" fill-opacity="1"><g transform="translate(106.189595, 52.500248)"><g><path d="M 3.34375 0 L 3.34375 -37.03125 L 9.921875 -37.03125 L 9.921875 0 Z M 3.34375 0 "/></g></g></g><g fill="#422f01" fill-opacity="1"><g transform="translate(119.509794, 52.500248)"><g><path d="M 14.140625 -7.609375 C 12.910156 -7.609375 11.765625 -7.742188 10.703125 -8.015625 L 8.796875 -6.125 C 9.378906 -5.8125 10.164062 -5.550781 11.15625 -5.34375 C 12.15625 -5.144531 13.769531 -4.941406 16 -4.734375 C 19.382812 -4.421875 21.847656 -3.613281 23.390625 -2.3125 C 24.941406 -1.007812 25.71875 0.785156 25.71875 3.078125 C 25.71875 4.585938 25.304688 6.019531 24.484375 7.375 C 23.660156 8.726562 22.390625 9.828125 20.671875 10.671875 C 18.953125 11.515625 16.757812 11.9375 14.09375 11.9375 C 10.457031 11.9375 7.523438 11.257812 5.296875 9.90625 C 3.066406 8.550781 1.953125 6.519531 1.953125 3.8125 C 1.953125 1.507812 3.066406 -0.476562 5.296875 -2.15625 C 4.609375 -2.46875 4.015625 -2.796875 3.515625 -3.140625 C 3.023438 -3.484375 2.59375 -3.84375 2.21875 -4.21875 L 2.21875 -5.40625 L 6.6875 -10.125 C 4.695312 -11.875 3.703125 -14.117188 3.703125 -16.859375 C 3.703125 -18.578125 4.117188 -20.140625 4.953125 -21.546875 C 5.796875 -22.953125 6.988281 -24.066406 8.53125 -24.890625 C 10.070312 -25.710938 11.941406 -26.125 14.140625 -26.125 C 15.578125 -26.125 16.914062 -25.914062 18.15625 -25.5 L 27.8125 -25.5 L 27.8125 -21.5 L 23.453125 -21.1875 C 24.140625 -19.882812 24.484375 -18.441406 24.484375 -16.859375 C 24.484375 -15.148438 24.070312 -13.59375 23.25 -12.1875 C 22.425781 -10.78125 21.234375 -9.664062 19.671875 -8.84375 C 18.109375 -8.019531 16.265625 -7.609375 14.140625 -7.609375 Z M 14.140625 -12.65625 C 15.472656 -12.65625 16.578125 -13.015625 17.453125 -13.734375 C 18.328125 -14.453125 18.765625 -15.476562 18.765625 -16.8125 C 18.765625 -18.15625 18.328125 -19.1875 17.453125 -19.90625 C 16.578125 -20.625 15.472656 -20.984375 14.140625 -20.984375 C 12.734375 -20.984375 11.601562 -20.625 10.75 -19.90625 C 9.894531 -19.1875 9.46875 -18.15625 9.46875 -16.8125 C 9.46875 -15.476562 9.894531 -14.453125 10.75 -13.734375 C 11.601562 -13.015625 12.734375 -12.65625 14.140625 -12.65625 Z M 7.96875 3.140625 C 7.96875 4.410156 8.554688 5.359375 9.734375 5.984375 C 10.921875 6.617188 12.375 6.9375 14.09375 6.9375 C 15.738281 6.9375 17.070312 6.601562 18.09375 5.9375 C 19.125 5.269531 19.640625 4.367188 19.640625 3.234375 C 19.640625 2.304688 19.304688 1.535156 18.640625 0.921875 C 17.972656 0.304688 16.644531 -0.0664062 14.65625 -0.203125 C 13.25 -0.304688 11.945312 -0.460938 10.75 -0.671875 C 9.75 -0.117188 9.035156 0.476562 8.609375 1.125 C 8.179688 1.78125 7.96875 2.453125 7.96875 3.140625 Z M 7.96875 3.140625 "/></g></g></g><g fill="#422f01" fill-opacity="1"><g transform="translate(148.773058, 52.500248)"><g><path d="M 15.578125 0.609375 C 13.109375 0.609375 10.890625 0.046875 8.921875 -1.078125 C 6.953125 -2.210938 5.390625 -3.78125 4.234375 -5.78125 C 3.085938 -7.789062 2.515625 -10.113281 2.515625 -12.75 C 2.515625 -15.394531 3.097656 -17.71875 4.265625 -19.71875 C 5.429688 -21.726562 7 -23.296875 8.96875 -24.421875 C 10.945312 -25.554688 13.164062 -26.125 15.625 -26.125 C 18.0625 -26.125 20.265625 -25.554688 22.234375 -24.421875 C 24.210938 -23.296875 25.773438 -21.726562 26.921875 -19.71875 C 28.066406 -17.71875 28.640625 -15.394531 28.640625 -12.75 C 28.640625 -10.113281 28.066406 -7.789062 26.921875 -5.78125 C 25.773438 -3.78125 24.207031 -2.210938 22.21875 -1.078125 C 20.226562 0.046875 18.015625 0.609375 15.578125 0.609375 Z M 15.578125 -5.09375 C 17.296875 -5.09375 18.785156 -5.734375 20.046875 -7.015625 C 21.316406 -8.304688 21.953125 -10.21875 21.953125 -12.75 C 21.953125 -15.289062 21.316406 -17.203125 20.046875 -18.484375 C 18.785156 -19.773438 17.3125 -20.421875 15.625 -20.421875 C 13.882812 -20.421875 12.382812 -19.773438 11.125 -18.484375 C 9.875 -17.203125 9.25 -15.289062 9.25 -12.75 C 9.25 -10.21875 9.875 -8.304688 11.125 -7.015625 C 12.382812 -5.734375 13.867188 -5.09375 15.578125 -5.09375 Z M 15.578125 -5.09375 "/></g></g></g><g fill="#422f01" fill-opacity="1"><g transform="translate(179.939212, 52.500248)"><g><path d="M 3.5 0 L 3.5 -36 L 17.953125 -36 C 21.679688 -36 24.53125 -35.128906 26.5 -33.390625 C 28.476562 -31.660156 29.46875 -29.441406 29.46875 -26.734375 C 29.46875 -24.472656 28.859375 -22.664062 27.640625 -21.3125 C 26.421875 -19.957031 24.9375 -19.039062 23.1875 -18.5625 C 25.25 -18.15625 26.945312 -17.132812 28.28125 -15.5 C 29.613281 -13.875 30.28125 -11.984375 30.28125 -9.828125 C 30.28125 -6.972656 29.25 -4.617188 27.1875 -2.765625 C 25.132812 -0.921875 22.222656 0 18.453125 0 Z M 10.078125 -20.875 L 16.96875 -20.875 C 18.820312 -20.875 20.242188 -21.300781 21.234375 -22.15625 C 22.234375 -23.019531 22.734375 -24.238281 22.734375 -25.8125 C 22.734375 -27.320312 22.242188 -28.515625 21.265625 -29.390625 C 20.285156 -30.265625 18.816406 -30.703125 16.859375 -30.703125 L 10.078125 -30.703125 Z M 10.078125 -5.34375 L 17.4375 -5.34375 C 19.382812 -5.34375 20.898438 -5.796875 21.984375 -6.703125 C 23.066406 -7.617188 23.609375 -8.898438 23.609375 -10.546875 C 23.609375 -12.222656 23.039062 -13.539062 21.90625 -14.5 C 20.769531 -15.457031 19.242188 -15.9375 17.328125 -15.9375 L 10.078125 -15.9375 Z M 10.078125 -5.34375 "/></g></g></g><g fill="#422f01" fill-opacity="1"><g transform="translate(212.391082, 52.500248)"><g><path d="M 15.734375 0.609375 C 13.160156 0.609375 10.878906 0.0625 8.890625 -1.03125 C 6.898438 -2.125 5.335938 -3.664062 4.203125 -5.65625 C 3.078125 -7.644531 2.515625 -9.941406 2.515625 -12.546875 C 2.515625 -15.179688 3.070312 -17.523438 4.1875 -19.578125 C 5.300781 -21.640625 6.84375 -23.242188 8.8125 -24.390625 C 10.789062 -25.546875 13.113281 -26.125 15.78125 -26.125 C 18.289062 -26.125 20.503906 -25.570312 22.421875 -24.46875 C 24.335938 -23.375 25.835938 -21.875 26.921875 -19.96875 C 28.003906 -18.070312 28.546875 -15.957031 28.546875 -13.625 C 28.546875 -13.25 28.535156 -12.851562 28.515625 -12.4375 C 28.492188 -12.03125 28.46875 -11.601562 28.4375 -11.15625 L 9.046875 -11.15625 C 9.179688 -9.164062 9.875 -7.601562 11.125 -6.46875 C 12.382812 -5.34375 13.90625 -4.78125 15.6875 -4.78125 C 17.019531 -4.78125 18.140625 -5.078125 19.046875 -5.671875 C 19.960938 -6.273438 20.640625 -7.054688 21.078125 -8.015625 L 27.765625 -8.015625 C 27.285156 -6.410156 26.488281 -4.945312 25.375 -3.625 C 24.257812 -2.300781 22.890625 -1.265625 21.265625 -0.515625 C 19.640625 0.234375 17.796875 0.609375 15.734375 0.609375 Z M 15.78125 -20.78125 C 14.175781 -20.78125 12.753906 -20.320312 11.515625 -19.40625 C 10.285156 -18.5 9.5 -17.117188 9.15625 -15.265625 L 21.859375 -15.265625 C 21.753906 -16.953125 21.132812 -18.289062 20 -19.28125 C 18.875 -20.28125 17.46875 -20.78125 15.78125 -20.78125 Z M 15.78125 -20.78125 "/></g></g></g><g fill="#422f01" fill-opacity="1"><g transform="translate(243.145798, 52.500248)"><g><path d="M 15.734375 0.609375 C 13.160156 0.609375 10.878906 0.0625 8.890625 -1.03125 C 6.898438 -2.125 5.335938 -3.664062 4.203125 -5.65625 C 3.078125 -7.644531 2.515625 -9.941406 2.515625 -12.546875 C 2.515625 -15.179688 3.070312 -17.523438 4.1875 -19.578125 C 5.300781 -21.640625 6.84375 -23.242188 8.8125 -24.390625 C 10.789062 -25.546875 13.113281 -26.125 15.78125 -26.125 C 18.289062 -26.125 20.503906 -25.570312 22.421875 -24.46875 C 24.335938 -23.375 25.835938 -21.875 26.921875 -19.96875 C 28.003906 -18.070312 28.546875 -15.957031 28.546875 -13.625 C 28.546875 -13.25 28.535156 -12.851562 28.515625 -12.4375 C 28.492188 -12.03125 28.46875 -11.601562 28.4375 -11.15625 L 9.046875 -11.15625 C 9.179688 -9.164062 9.875 -7.601562 11.125 -6.46875 C 12.382812 -5.34375 13.90625 -4.78125 15.6875 -4.78125 C 17.019531 -4.78125 18.140625 -5.078125 19.046875 -5.671875 C 19.960938 -6.273438 20.640625 -7.054688 21.078125 -8.015625 L 27.765625 -8.015625 C 27.285156 -6.410156 26.488281 -4.945312 25.375 -3.625 C 24.257812 -2.300781 22.890625 -1.265625 21.265625 -0.515625 C 19.640625 0.234375 17.796875 0.609375 15.734375 0.609375 Z M 15.78125 -20.78125 C 14.175781 -20.78125 12.753906 -20.320312 11.515625 -19.40625 C 10.285156 -18.5 9.5 -17.117188 9.15625 -15.265625 L 21.859375 -15.265625 C 21.753906 -16.953125 21.132812 -18.289062 20 -19.28125 C 18.875 -20.28125 17.46875 -20.78125 15.78125 -20.78125 Z M 15.78125 -20.78125 "/></g></g></g><g fill="#422f01" fill-opacity="1"><g transform="translate(273.900514, 52.500248)"><g><path d="M 1.703125 0 L 1.703125 -5.296875 L 14.703125 -20.046875 L 1.84375 -20.046875 L 1.84375 -25.5 L 22.21875 -25.5 L 22.21875 -20.203125 L 9 -5.453125 L 22.46875 -5.453125 L 22.46875 0 Z M 1.703125 0 "/></g></g></g><path fill="#422f01" d="M 8.527344 45.25 C 8.550781 45.25 8.574219 45.246094 8.597656 45.246094 C 9.140625 45.210938 9.554688 44.742188 9.515625 44.199219 C 9.289062 40.914062 12.386719 37.921875 16.5625 37.386719 C 17.105469 37.316406 17.488281 36.824219 17.417969 36.285156 C 17.347656 35.75 16.855469 35.371094 16.308594 35.4375 C 11.09375 36.109375 7.242188 40.015625 7.542969 44.332031 C 7.578125 44.851562 8.011719 45.25 8.527344 45.25 Z M 8.527344 45.25 " fill-opacity="1" fill-rule="nonzero"/><path fill="#422f01" d="M 21.386719 35.921875 C 21.386719 36.191406 21.289062 36.425781 21.097656 36.617188 C 20.902344 36.808594 20.671875 36.902344 20.398438 36.902344 C 20.125 36.902344 19.890625 36.808594 19.699219 36.617188 C 19.503906 36.425781 19.40625 36.191406 19.40625 35.921875 C 19.40625 35.652344 19.503906 35.417969 19.699219 35.226562 C 19.890625 35.035156 20.125 34.941406 20.398438 34.941406 C 20.671875 34.941406 20.902344 35.035156 21.097656 35.226562 C 21.289062 35.417969 21.386719 35.652344 21.386719 35.921875 Z M 21.386719 35.921875 " fill-opacity="1" fill-rule="nonzero"/><g clip-path="url(#b6a3f968ab)"><path fill="#422f01" d="M 14.273438 54.574219 C 17.175781 54.574219 20.109375 53.367188 22.484375 51.230469 C 23.285156 61.144531 28.691406 68.8125 35.25 68.8125 C 41.808594 68.8125 47.214844 61.144531 48.015625 51.230469 C 50.390625 53.367188 53.324219 54.574219 56.226562 54.574219 C 59.261719 54.574219 62.257812 53.265625 64.550781 50.335938 C 70.507812 42.714844 64.566406 33.210938 54.925781 31.910156 L 42.765625 29.726562 C 43.945312 28.167969 44.65625 26.238281 44.65625 24.140625 C 44.65625 20.023438 41.964844 16.535156 38.230469 15.300781 C 38.234375 12.265625 39.960938 10.761719 40.925781 10.164062 C 41.375 10.609375 41.992188 10.886719 42.675781 10.886719 C 44.042969 10.886719 45.152344 9.785156 45.152344 8.433594 C 45.152344 7.078125 44.042969 5.976562 42.675781 5.976562 C 41.359375 5.976562 40.289062 7.007812 40.214844 8.296875 C 38.617188 9.15625 36.425781 11.265625 36.253906 14.867188 C 35.925781 14.832031 35.589844 14.8125 35.25 14.8125 C 34.910156 14.8125 34.574219 14.832031 34.246094 14.867188 C 34.074219 11.265625 31.882812 9.15625 30.285156 8.296875 C 30.210938 7.007812 29.140625 5.976562 27.824219 5.976562 C 26.457031 5.976562 25.347656 7.078125 25.347656 8.433594 C 25.347656 9.785156 26.457031 10.886719 27.824219 10.886719 C 28.507812 10.886719 29.125 10.609375 29.574219 10.167969 C 30.53125 10.765625 32.261719 12.273438 32.269531 15.300781 C 28.535156 16.535156 25.84375 20.023438 25.84375 24.140625 C 25.84375 26.238281 26.554688 28.167969 27.734375 29.726562 L 15.574219 31.910156 C 5.933594 33.210938 -0.0078125 42.714844 5.949219 50.335938 C 8.238281 53.265625 11.238281 54.574219 14.273438 54.574219 Z M 42.675781 7.941406 C 42.949219 7.941406 43.171875 8.160156 43.171875 8.433594 C 43.171875 8.703125 42.949219 8.921875 42.675781 8.921875 C 42.402344 8.921875 42.179688 8.703125 42.179688 8.433594 C 42.179688 8.160156 42.402344 7.941406 42.675781 7.941406 Z M 27.824219 8.921875 C 27.550781 8.921875 27.328125 8.703125 27.328125 8.433594 C 27.328125 8.160156 27.550781 7.941406 27.824219 7.941406 C 28.097656 7.941406 28.320312 8.160156 28.320312 8.433594 C 28.320312 8.703125 28.097656 8.921875 27.824219 8.921875 Z M 35.25 66.847656 C 31.519531 66.847656 28.15625 63.523438 26.183594 58.597656 C 29.402344 56.421875 36.074219 53.5 44.292969 58.652344 C 42.320312 63.550781 38.964844 66.847656 35.25 66.847656 Z M 44.960938 56.757812 C 36.324219 51.542969 29.21875 54.316406 25.515625 56.679688 C 25.0625 55.183594 24.730469 53.578125 24.539062 51.898438 C 26.566406 50.078125 34.996094 43.671875 45.964844 51.84375 C 45.773438 53.570312 45.433594 55.222656 44.960938 56.757812 Z M 46.128906 49.542969 C 36.042969 42.710938 27.804688 47.011719 24.371094 49.535156 C 24.367188 49.417969 24.367188 49.300781 24.367188 49.1875 C 25.152344 48.152344 25.832031 46.988281 26.363281 45.707031 C 26.941406 44.308594 27.566406 42.898438 28.203125 41.523438 C 31.457031 39.921875 36.441406 38.757812 42.363281 41.667969 C 42.976562 42.996094 43.582031 44.355469 44.136719 45.707031 C 44.667969 46.988281 45.347656 48.152344 46.132812 49.1875 C 46.132812 49.304688 46.132812 49.425781 46.128906 49.542969 Z M 29.460938 38.859375 C 30.972656 35.71875 32.371094 32.96875 33.074219 31.265625 C 33.132812 31.128906 33.171875 30.992188 33.203125 30.863281 C 33.867188 30.640625 34.550781 30.523438 35.25 30.523438 C 35.949219 30.523438 36.632812 30.640625 37.296875 30.863281 C 37.328125 30.996094 37.367188 31.128906 37.425781 31.265625 C 38.136719 32.992188 39.5625 35.789062 41.097656 38.980469 C 36.539062 37.324219 32.546875 37.777344 29.460938 38.859375 Z M 54.574219 33.839844 C 54.601562 33.847656 54.632812 33.851562 54.660156 33.855469 C 59.070312 34.449219 62.863281 37.128906 64.324219 40.675781 C 65.496094 43.523438 65.023438 46.527344 62.984375 49.132812 C 61.203125 51.410156 58.867188 52.613281 56.226562 52.613281 C 51.980469 52.613281 47.859375 49.539062 45.972656 44.964844 C 44.570312 41.570312 42.875 38.097656 41.507812 35.304688 C 40.714844 33.675781 40.007812 32.234375 39.523438 31.140625 Z M 35.25 16.777344 C 39.34375 16.777344 42.675781 20.078125 42.675781 24.140625 C 42.675781 26.160156 41.847656 27.992188 40.511719 29.324219 L 39.140625 29.078125 C 39.003906 29.058594 38.871094 29.050781 38.746094 29.050781 C 38.558594 29.050781 38.394531 29.074219 38.238281 29.113281 C 37.277344 28.753906 36.28125 28.558594 35.25 28.558594 C 34.21875 28.558594 33.222656 28.753906 32.261719 29.113281 C 32.105469 29.074219 31.941406 29.050781 31.753906 29.050781 C 31.628906 29.050781 31.496094 29.058594 31.359375 29.078125 L 29.988281 29.324219 C 28.652344 27.992188 27.824219 26.160156 27.824219 24.140625 C 27.824219 20.078125 31.15625 16.777344 35.25 16.777344 Z M 6.175781 40.675781 C 7.636719 37.128906 11.429688 34.449219 15.839844 33.855469 C 15.867188 33.851562 15.898438 33.847656 15.925781 33.839844 L 30.976562 31.140625 C 30.492188 32.234375 29.789062 33.675781 28.992188 35.300781 C 27.628906 38.09375 25.929688 41.566406 24.527344 44.964844 C 22.640625 49.539062 18.519531 52.613281 14.273438 52.613281 C 11.632812 52.613281 9.296875 51.410156 7.515625 49.132812 C 5.476562 46.527344 5.003906 43.523438 6.175781 40.675781 Z M 6.175781 40.675781 " fill-opacity="1" fill-rule="nonzero"/></g><path fill="#422f01" d="M 53.9375 37.386719 C 58.117188 37.921875 61.210938 40.914062 60.984375 44.199219 C 60.945312 44.742188 61.359375 45.210938 61.902344 45.246094 C 61.925781 45.246094 61.949219 45.25 61.972656 45.25 C 62.488281 45.25 62.925781 44.851562 62.960938 44.332031 C 63.257812 40.015625 59.40625 36.109375 54.191406 35.4375 C 53.652344 35.367188 53.152344 35.75 53.082031 36.285156 C 53.011719 36.824219 53.394531 37.316406 53.9375 37.386719 Z M 53.9375 37.386719 " fill-opacity="1" fill-rule="nonzero"/><path fill="#422f01" d="M 51.09375 35.921875 C 51.09375 36.191406 50.996094 36.425781 50.804688 36.617188 C 50.609375 36.808594 50.375 36.902344 50.105469 36.902344 C 49.832031 36.902344 49.597656 36.808594 49.402344 36.617188 C 49.210938 36.425781 49.113281 36.191406 49.113281 35.921875 C 49.113281 35.652344 49.210938 35.417969 49.402344 35.226562 C 49.597656 35.035156 49.832031 34.941406 50.105469 34.941406 C 50.375 34.941406 50.609375 35.035156 50.804688 35.226562 C 50.996094 35.417969 51.09375 35.652344 51.09375 35.921875 Z M 51.09375 35.921875 " fill-opacity="1" fill-rule="nonzero"/></svg>